<svg xmlns="http://www.w3.org/2000/svg" width="800" height="520" viewBox="0 0 800 520">
  <style>
    .label { font: 14px sans-serif; fill: #222; }
    .tile { rx: 8; ry: 8; }
  </style>

  <!-- Grid config: 4 columns x 4 rows -->
  <!-- Each cell: tile 120x120 (square 100x100 centered), label below -->

  <!-- Row 1 -->
  <g transform="translate(20,20)">
    <rect class="tile" width="120" height="120" fill="#2E3440"/>
    <rect x="10" y="10" width="100" height="100" fill="#2E3440"/>
    <text class="label" x="10" y="145">base00 - #2E3440</text>
  </g>

  <g transform="translate(160,20)">
    <rect class="tile" width="120" height="120" fill="#3B4252"/>
    <rect x="10" y="10" width="100" height="100" fill="#3B4252"/>
    <text class="label" x="10" y="145">base01 - #3B4252</text>
  </g>

  <g transform="translate(300,20)">
    <rect class="tile" width="120" height="120" fill="#434C5E"/>
    <rect x="10" y="10" width="100" height="100" fill="#434C5E"/>
    <text class="label" x="10" y="145">base02 - #434C5E</text>
  </g>

  <g transform="translate(440,20)">
    <rect class="tile" width="120" height="120" fill="#4C566A"/>
    <rect x="10" y="10" width="100" height="100" fill="#4C566A"/>
    <text class="label" x="10" y="145">base03 - #4C566A</text>
  </g>

  <!-- Row 2 -->
  <g transform="translate(20,180)">
    <rect class="tile" width="120" height="120" fill="#D8DEE9"/>
    <rect x="10" y="10" width="100" height="100" fill="#D8DEE9"/>
    <text class="label" x="10" y="145">base04 - #D8DEE9</text>
  </g>

  <g transform="translate(160,180)">
    <rect class="tile" width="120" height="120" fill="#E5E9F0"/>
    <rect x="10" y="10" width="100" height="100" fill="#E5E9F0"/>
    <text class="label" x="10" y="145">base05 - #E5E9F0</text>
  </g>

  <g transform="translate(300,180)">
    <rect class="tile" width="120" height="120" fill="#ECEFF4"/>
    <rect x="10" y="10" width="100" height="100" fill="#ECEFF4"/>
    <text class="label" x="10" y="145">base06 - #ECEFF4</text>
  </g>

  <g transform="translate(440,180)">
    <rect class="tile" width="120" height="120" fill="#8FBCBB"/>
    <rect x="10" y="10" width="100" height="100" fill="#8FBCBB"/>
    <text class="label" x="10" y="145">base07 - #8FBCBB</text>
  </g>

  <!-- Row 3 -->
  <g transform="translate(20,340)">
    <rect class="tile" width="120" height="120" fill="#BF616A"/>
    <rect x="10" y="10" width="100" height="100" fill="#BF616A"/>
    <text class="label" x="10" y="145">base08 - #BF616A</text>
  </g>

  <g transform="translate(160,340)">
    <rect class="tile" width="120" height="120" fill="#D08770"/>
    <rect x="10" y="10" width="100" height="100" fill="#D08770"/>
    <text class="label" x="10" y="145">base09 - #D08770</text>
  </g>

  <g transform="translate(300,340)">
    <rect class="tile" width="120" height="120" fill="#EBCB8B"/>
    <rect x="10" y="10" width="100" height="100" fill="#EBCB8B"/>
    <text class="label" x="10" y="145">base0A - #EBCB8B</text>
  </g>

  <g transform="translate(440,340)">
    <rect class="tile" width="120" height="120" fill="#A3BE8C"/>
    <rect x="10" y="10" width="100" height="100" fill="#A3BE8C"/>
    <text class="label" x="10" y="145">base0B - #A3BE8C</text>
  </g>

  <!-- Row 4 -->
  <g transform="translate(580,20)">
    <rect class="tile" width="120" height="120" fill="#88C0D0"/>
    <rect x="10" y="10" width="100" height="100" fill="#88C0D0"/>
    <text class="label" x="10" y="145">base0C - #88C0D0</text>
  </g>

  <g transform="translate(580,180)">
    <rect class="tile" width="120" height="120" fill="#81A1C1"/>
    <rect x="10" y="10" width="100" height="100" fill="#81A1C1"/>
    <text class="label" x="10" y="145">base0D - #81A1C1</text>
  </g>

  <g transform="translate(580,340)">
    <rect class="tile" width="120" height="120" fill="#B48EAD"/>
    <rect x="10" y="10" width="100" height="100" fill="#B48EAD"/>
    <text class="label" x="10" y="145">base0E - #B48EAD</text>
  </g>

  <g transform="translate(720,20)">
    <rect class="tile" width="120" height="120" fill="#5E81AC"/>
    <rect x="10" y="10" width="100" height="100" fill="#5E81AC"/>
    <text class="label" x="10" y="145">base0F - #5E81AC</text>
  </g>
</svg>