<?xml version="1.0" encoding="UTF-8"?>
<svg id="Layer_1" xmlns="http://www.w3.org/2000/svg" version="1.1" viewBox="0 0 800 520">
  <!-- Generator: Adobe Illustrator 29.6.1, SVG Export Plug-In . SVG Version: 2.1.1 Build 9)  -->
  <defs>
    <style>
      .st0 {
        fill: #e8da8b;
      }

      .st1 {
        fill: #343636;
      }

      .st2 {
        fill: #9db834;
      }

      .st3 {
        fill: #8fbcbb;
      }

      .st4 {
        fill: #677393;
      }

      .st5 {
        fill: #2a5240;
      }

      .st6 {
        fill: #ac376a;
      }

      .st7 {
        fill: #d9d5d2;
      }

      .st8 {
        fill: #e2dfdd;
      }

      .st9 {
        fill: #5b5c98;
      }

      .st10 {
        fill: #527c36;
      }

      .st11 {
        fill: #91507b;
      }

      .st12 {
        fill: #7ea22b;
      }

      .st13 {
        fill: #cfcac7;
      }

      .st14 {
        fill: #c45f8f;
      }

      .st15 {
        fill: #7d8391;
      }
    </style>
  </defs>
  <rect class="st1" width="800" height="520"/>
  <rect class="st1" x="20" y="38" width="180" height="100" rx="7.3" ry="7.3"/>
  <rect class="st5" x="220" y="38" width="180" height="100" rx="7.3" ry="7.3"/>
  <rect class="st10" x="420" y="38" width="180" height="100" rx="7.3" ry="7.3"/>
  <rect class="st12" x="620" y="38" width="160" height="100" rx="7.3" ry="7.3"/>
  <rect class="st13" x="20" y="154" width="180" height="100" rx="7.3" ry="7.3"/>
  <rect class="st7" x="220" y="154" width="180" height="100" rx="7.3" ry="7.3"/>
  <rect class="st8" x="420" y="154" width="180" height="100" rx="7.3" ry="7.3"/>
  <rect class="st3" x="620" y="154" width="160" height="100" rx="7.3" ry="7.3"/>
  <rect class="st6" x="20" y="270" width="180" height="100" rx="7.3" ry="7.3"/>
  <rect class="st11" x="220" y="270" width="180" height="100" rx="7.3" ry="7.3"/>
  <rect class="st0" x="420" y="270" width="180" height="100" rx="7.3" ry="7.3"/>
  <rect class="st2" x="620" y="270" width="160" height="100" rx="7.3" ry="7.3"/>
  <rect class="st15" x="20" y="386" width="180" height="100" rx="10.3" ry="10.3"/>
  <rect class="st4" x="220" y="386" width="180" height="100" rx="10.3" ry="10.3"/>
  <rect class="st14" x="420" y="386" width="180" height="100" rx="10.3" ry="10.3"/>
  <rect class="st9" x="620" y="386" width="160" height="100" rx="10.3" ry="10.3"/>
</svg>