<?xml version="1.0" encoding="UTF-8"?>
<svg id="Layer_1" xmlns="http://www.w3.org/2000/svg" version="1.1" viewBox="0 0 800 520">
  <!-- Generator: Adobe Illustrator 29.6.1, SVG Export Plug-In . SVG Version: 2.1.1 Build 9)  -->
  <defs>
    <style>
      .st0 {
        fill: #eceff4;
      }

      .st1 {
        fill: #8fbcbb;
      }

      .st2 {
        fill: #b48ead;
      }

      .st3 {
        fill: #2e3440;
      }

      .st4 {
        fill: #88c0d0;
      }

      .st5 {
        fill: #d08770;
      }

      .st6 {
        fill: #81a1c1;
      }

      .st7 {
        fill: #434c5e;
      }

      .st8 {
        fill: #e5e9f0;
      }

      .st9 {
        fill: #5e81ac;
      }

      .st10 {
        fill: #bf616a;
      }

      .st11 {
        fill: #d8dee9;
      }

      .st12 {
        fill: #3b4252;
      }

      .st13 {
        fill: #ebcb8b;
      }

      .st14 {
        fill: #a3be8c;
      }

      .st15 {
        fill: #4c566a;
      }
    </style>
  </defs>
  <rect class="st3" width="800" height="520"/>
  <rect class="st3" x="20" y="38" width="180" height="100" rx="7.3" ry="7.3"/>
  <rect class="st12" x="220" y="38" width="180" height="100" rx="7.3" ry="7.3"/>
  <rect class="st7" x="420" y="38" width="180" height="100" rx="7.3" ry="7.3"/>
  <rect class="st15" x="620" y="38" width="160" height="100" rx="7.3" ry="7.3"/>
  <rect class="st11" x="20" y="154" width="180" height="100" rx="7.3" ry="7.3"/>
  <rect class="st8" x="220" y="154" width="180" height="100" rx="7.3" ry="7.3"/>
  <rect class="st0" x="420" y="154" width="180" height="100" rx="7.3" ry="7.3"/>
  <rect class="st1" x="620" y="154" width="160" height="100" rx="7.3" ry="7.3"/>
  <rect class="st10" x="20" y="270" width="180" height="100" rx="7.3" ry="7.3"/>
  <rect class="st5" x="220" y="270" width="180" height="100" rx="7.3" ry="7.3"/>
  <rect class="st13" x="420" y="270" width="180" height="100" rx="7.3" ry="7.3"/>
  <rect class="st14" x="620" y="270" width="160" height="100" rx="7.3" ry="7.3"/>
  <rect class="st4" x="20" y="386" width="180" height="100" rx="10.3" ry="10.3"/>
  <rect class="st6" x="220" y="386" width="180" height="100" rx="10.3" ry="10.3"/>
  <rect class="st2" x="420" y="386" width="180" height="100" rx="10.3" ry="10.3"/>
  <rect class="st9" x="620" y="386" width="160" height="100" rx="10.3" ry="10.3"/>
</svg>