<?xml version="1.0" encoding="UTF-8"?>
<svg id="Layer_1" xmlns="http://www.w3.org/2000/svg" version="1.1" viewBox="0 0 1920 1080">
  <!-- Generator: Adobe Illustrator 29.6.1, SVG Export Plug-In . SVG Version: 2.1.1 Build 9)  -->
  <defs>
    <style>
      .st0 {
        fill: {{base06}};
      }

      .st1 {
        fill: {{base07}};
      }

      .st2 {
        fill: {{base0E}};
      }

      .st3 {
        fill: {{base00}};
      }

      .st4 {
        fill: {{base0C}};
      }

      .st5 {
        fill: {{base09}};
      }

      .st6 {
        fill: {{base0D}};
      }

      .st7 {
        fill: {{base02}};
      }

      .st8 {
        fill: {{base05}};
      }

      .st9 {
        fill: {{base0F}};
      }

      .st10 {
        fill: {{base08}};
      }

      .st11 {
        fill: {{base04}};
      }

      .st12 {
        fill: {{base01}};
      }

      .st13 {
        fill: {{base0A}};
      }

      .st14 {
        fill: {{base0B}};
      }

      .st15 {
        fill: {{base03}};
      }
    </style>
  </defs>
  <rect class="st3" width="1920" height="1080"/>
  <g>
    <rect class="st12" x="60" y="480" width="120" height="120"/>
    <rect class="st7" x="180" y="480" width="120" height="120"/>
    <rect class="st15" x="300" y="480" width="120" height="120"/>
    <rect class="st11" x="420" y="480" width="120" height="120"/>
    <rect class="st8" x="540" y="480" width="120" height="120"/>
    <rect class="st0" x="660" y="480" width="120" height="120"/>
    <rect class="st1" x="780" y="480" width="120" height="120"/>
    <rect class="st10" x="900" y="480" width="120" height="120"/>
    <rect class="st5" x="1020" y="480" width="120" height="120"/>
    <rect class="st13" x="1140" y="480" width="120" height="120"/>
    <rect class="st14" x="1260" y="480" width="120" height="120"/>
    <rect class="st4" x="1380" y="480" width="120" height="120"/>
    <rect class="st6" x="1500" y="480" width="120" height="120"/>
    <rect class="st2" x="1620" y="480" width="120" height="120"/>
    <rect class="st9" x="1740" y="480" width="120" height="120"/>
  </g>
</svg>