<?xml version="1.0" encoding="UTF-8"?>
<svg id="Layer_1" xmlns="http://www.w3.org/2000/svg" version="1.1" viewBox="0 0 1920 1080">
  <!-- Generator: Adobe Illustrator 29.6.1, SVG Export Plug-In . SVG Version: 2.1.1 Build 9)  -->
  <defs>
    <style>
      .st0 {
        fill: {{base06}};
      }

      .st1 {
        fill: {{base07}};
      }

      .st2 {
        fill: {{base0E}};
      }

      .st3 {
        fill: {{base00}};
      }

      .st4 {
        fill: {{base0C}};
      }

      .st5 {
        fill: {{base09}};
      }

      .st6 {
        fill: {{base0D}};
      }

      .st7 {
        fill: {{base02}};
      }

      .st8 {
        fill: {{base05}};
      }

      .st9 {
        fill: {{base0F}};
      }

      .st10 {
        fill: {{base08}};
      }

      .st11 {
        fill: {{base04}};
      }

      .st12 {
        fill: {{base01}};
      }

      .st13 {
        fill: {{base0A}};
      }

      .st14 {
        fill: {{base0B}};
      }

      .st15 {
        fill: {{base03}};
      }
    </style>
  </defs>
  <rect class="st3" width="1920" height="1080"/>
  <g>
    <g>
      <rect class="st12" x="1471.4" y="707.8" width="78.7" height="78.7" transform="translate(3021.4 1494.2) rotate(-180)"/>
      <rect class="st7" x="1392.7" y="707.8" width="78.7" height="78.7" transform="translate(2864 1494.2) rotate(-180)"/>
      <rect class="st15" x="1314" y="707.8" width="78.7" height="78.7" transform="translate(2706.7 1494.2) rotate(-180)"/>
      <rect class="st11" x="1235.3" y="707.8" width="78.7" height="78.7" transform="translate(2549.4 1494.2) rotate(-180)"/>
      <rect class="st8" x="1156.7" y="707.8" width="78.7" height="78.7" transform="translate(2392 1494.2) rotate(-180)"/>
      <rect class="st0" x="1078" y="707.8" width="78.7" height="78.7" transform="translate(2234.7 1494.2) rotate(-180)"/>
      <rect class="st1" x="999.3" y="707.8" width="78.7" height="78.7" transform="translate(2077.3 1494.2) rotate(-180)"/>
      <rect class="st10" x="920.7" y="707.8" width="78.7" height="78.7" transform="translate(1920 1494.2) rotate(-180)"/>
      <rect class="st5" x="842" y="707.8" width="78.7" height="78.7" transform="translate(1762.7 1494.2) rotate(-180)"/>
      <rect class="st13" x="763.3" y="707.8" width="78.7" height="78.7" transform="translate(1605.3 1494.2) rotate(-180)"/>
      <rect class="st14" x="684.7" y="707.8" width="78.7" height="78.7" transform="translate(1448 1494.2) rotate(-180)"/>
      <rect class="st4" x="606" y="707.8" width="78.7" height="78.7" transform="translate(1290.6 1494.2) rotate(-180)"/>
      <rect class="st6" x="527.3" y="707.8" width="78.7" height="78.7" transform="translate(1133.3 1494.2) rotate(-180)"/>
      <rect class="st2" x="448.6" y="707.8" width="78.7" height="78.7" transform="translate(976 1494.2) rotate(-180)"/>
      <rect class="st9" x="370" y="707.8" width="78.7" height="78.7" transform="translate(818.6 1494.2) rotate(-180)"/>
    </g>
    <g>
      <rect class="st6" x="370" y="293.6" width="359" height="359"/>
      <circle class="st2" cx="952.4" cy="474.1" r="180.6"/>
      <polygon class="st1" points="1341.5 293.6 1133 654.7 1550 654.7 1341.5 293.6"/>
    </g>
  </g>
</svg>