<?xml version="1.0" encoding="UTF-8"?>
<svg id="Layer_1" xmlns="http://www.w3.org/2000/svg" version="1.1" viewBox="0 0 1920 1080">
  <!-- Generator: Adobe Illustrator 29.6.1, SVG Export Plug-In . SVG Version: 2.1.1 Build 9)  -->
  <defs>
    <style>
      .st0 {
        fill: {{base06}};
      }

      .st1 {
        fill: {{base07}};
      }

      .st2 {
        fill: {{base0E}};
      }

      .st3 {
        fill: {{base00}};
      }

      .st4 {
        fill: {{base0C}};
      }

      .st5 {
        fill: {{base09}};
      }

      .st6 {
        fill: {{base0D}};
      }

      .st7 {
        fill: {{base02}};
      }

      .st8 {
        fill: {{base05}};
      }

      .st9 {
        fill: {{base0F}};
      }

      .st10 {
        fill: {{base08}};
      }

      .st11 {
        fill: {{base04}};
      }

      .st12 {
        fill: {{base01}};
      }

      .st13 {
        fill: {{base0A}};
      }

      .st14 {
        fill: {{base0B}};
      }

      .st15 {
        fill: {{base03}};
      }
    </style>
  </defs>
  <rect class="st3" width="1920" height="1080"/>
  <g>
    <polygon class="st12" points="1211.6 0 1239.3 0 724.1 1080 696.3 1080 1211.6 0"/>
    <polygon class="st7" points="1239.3 0 1267.1 0 751.8 1080 724.1 1080 1239.3 0"/>
    <polygon class="st15" points="1267.1 0 1294.8 0 779.6 1080 751.8 1080 1267.1 0"/>
    <polygon class="st11" points="1294.8 0 1322.6 0 807.3 1080 779.6 1080 1294.8 0"/>
    <polygon class="st8" points="1322.6 0 1350.3 0 835.1 1080 807.3 1080 1322.6 0"/>
    <polygon class="st0" points="1350.3 0 1378.1 0 862.8 1080 835.1 1080 1350.3 0"/>
    <polygon class="st1" points="1378.1 0 1405.8 0 890.6 1080 862.8 1080 1378.1 0"/>
    <polygon class="st10" points="1405.8 0 1433.6 0 918.4 1080 890.6 1080 1405.8 0"/>
    <polygon class="st5" points="1433.6 0 1461.3 0 946.1 1080 918.4 1080 1433.6 0"/>
    <polygon class="st13" points="1461.3 0 1489.1 0 973.9 1080 946.1 1080 1461.3 0"/>
    <polygon class="st14" points="1489.1 0 1516.8 0 1001.6 1080 973.9 1080 1489.1 0"/>
    <polygon class="st4" points="1516.8 0 1544.6 0 1029.4 1080 1001.6 1080 1516.8 0"/>
    <polygon class="st6" points="1544.6 0 1572.4 0 1057.1 1080 1029.4 1080 1544.6 0"/>
    <polygon class="st2" points="1572.4 0 1600.1 0 1084.9 1080 1057.1 1080 1572.4 0"/>
    <polygon class="st9" points="1600.1 0 1627.9 0 1112.6 1080 1084.9 1080 1600.1 0"/>
  </g>
</svg>