<?xml version="1.0" encoding="UTF-8"?>
<svg id="Layer_1" xmlns="http://www.w3.org/2000/svg" version="1.1" viewBox="0 0 1920 1080">
  <!-- Generator: Adobe Illustrator 29.6.1, SVG Export Plug-In . SVG Version: 2.1.1 Build 9)  -->
  <defs>
    <style>
      .st0 {
        fill: {{base06}};
      }

      .st1 {
        fill: {{base07}};
      }

      .st2 {
        fill: {{base0E}};
      }

      .st3 {
        fill: {{base00}};
      }

      .st4 {
        fill: {{base0C}};
      }

      .st5 {
        fill: {{base09}};
      }

      .st6 {
        fill: {{base0D}};
      }

      .st7 {
        fill: {{base02}};
      }

      .st8 {
        fill: {{base05}};
      }

      .st9 {
        fill: {{base0F}};
      }

      .st10 {
        fill: {{base08}};
      }

      .st11 {
        fill: {{base04}};
      }

      .st12 {
        fill: {{base01}};
      }

      .st13 {
        fill: {{base0A}};
      }

      .st14 {
        fill: {{base0B}};
      }

      .st15 {
        fill: {{base03}};
      }
    </style>
  </defs>
  <rect class="st3" width="1920" height="1080"/>
  <g>
    <rect class="st12" x="940.5" y="247.6" width="39" height="39" transform="translate(692.9 1227.1) rotate(-90)"/>
    <rect class="st7" x="940.5" y="286.6" width="39" height="39" transform="translate(653.9 1266.1) rotate(-90)"/>
    <rect class="st15" x="940.5" y="325.5" width="39" height="39" transform="translate(615 1305) rotate(-90)"/>
    <rect class="st11" x="940.5" y="364.5" width="39" height="39" transform="translate(576 1344) rotate(-90)"/>
    <rect class="st8" x="940.5" y="403.5" width="39" height="39" transform="translate(537 1383) rotate(-90)"/>
    <rect class="st0" x="940.5" y="442.5" width="39" height="39" transform="translate(498 1422) rotate(-90)"/>
    <rect class="st1" x="940.5" y="481.5" width="39" height="39" transform="translate(459 1461) rotate(-90)"/>
    <rect class="st10" x="940.5" y="520.5" width="39" height="39" transform="translate(420 1500) rotate(-90)"/>
    <rect class="st5" x="940.5" y="559.5" width="39" height="39" transform="translate(381 1539) rotate(-90)"/>
    <rect class="st13" x="940.5" y="598.5" width="39" height="39" transform="translate(342 1578) rotate(-90)"/>
    <rect class="st14" x="940.5" y="637.5" width="39" height="39" transform="translate(303 1617) rotate(-90)"/>
    <rect class="st4" x="940.5" y="676.5" width="39" height="39" transform="translate(264 1656) rotate(-90)"/>
    <rect class="st6" x="940.5" y="715.4" width="39" height="39" transform="translate(225.1 1694.9) rotate(-90)"/>
    <rect class="st2" x="940.5" y="754.4" width="39" height="39" transform="translate(186.1 1733.9) rotate(-90)"/>
    <rect class="st9" x="940.5" y="793.4" width="39" height="39" transform="translate(147.1 1772.9) rotate(-90)"/>
  </g>
</svg>